<svg xmlns="http://www.w3.org/2000/svg" xmlns:xlink="http://www.w3.org/1999/xlink" viewBox="0 0 93 30"><g transform="translate(0 0)"><g transform="translate(0 0)"><path d="M 0 2.429 L 13.775 2.429 L 13.775 16.129 C 6.172 16.129 0.007 9.997 0 2.429 Z" fill="rgb(235,117,46)"></path><path d="M 27.547 16.142 L 13.775 16.142 L 13.775 2.429" fill="rgb(231,87,37)"></path><path d="M 0 16.129 L 13.775 16.129 L 13.775 29.852 C 10.12 29.852 6.615 28.406 4.031 25.832 C 1.448 23.258 -0.003 19.768 0 16.129 Z" fill="rgb(235,117,46)"></path><path d="M 13.775 16.129 L 27.544 16.129 L 27.544 29.852 C 23.89 29.85 20.386 28.403 17.804 25.829 C 15.222 23.256 13.772 19.766 13.775 16.129 Z" fill="rgb(231,87,37)"></path><path d="M 21.704 4.165 C 21.704 1.865 23.577 0 25.888 0 C 28.198 0 30.071 1.865 30.071 4.165 C 30.071 6.465 28.198 8.329 25.888 8.329 C 23.577 8.329 21.704 6.465 21.704 4.165 Z" fill="rgb(231,87,37)"></path><path d="M 42.216 9.494 C 41.874 9.496 41.534 9.429 41.218 9.297 C 40.92 9.17 40.65 8.983 40.427 8.748 C 40.209 8.513 40.044 8.234 39.945 7.929 L 40.803 7.558 C 40.925 7.862 41.131 8.124 41.396 8.316 C 41.649 8.5 41.955 8.597 42.268 8.594 C 42.431 8.597 42.593 8.567 42.744 8.506 C 42.872 8.457 42.984 8.375 43.068 8.268 C 43.142 8.162 43.181 8.035 43.179 7.906 C 43.184 7.755 43.13 7.607 43.03 7.494 C 42.907 7.371 42.754 7.283 42.586 7.239 L 41.477 6.894 C 41.093 6.79 40.747 6.577 40.483 6.281 C 40.263 6.007 40.148 5.664 40.159 5.313 C 40.153 5.012 40.236 4.716 40.398 4.461 C 40.562 4.21 40.793 4.009 41.066 3.881 C 41.37 3.739 41.702 3.669 42.038 3.674 C 42.358 3.67 42.675 3.73 42.971 3.852 C 43.247 3.964 43.497 4.131 43.707 4.342 C 43.911 4.552 44.067 4.804 44.164 5.081 L 43.315 5.458 C 43.216 5.198 43.041 4.973 42.812 4.813 C 42.585 4.658 42.314 4.577 42.038 4.584 C 41.882 4.581 41.728 4.61 41.584 4.671 C 41.455 4.719 41.342 4.803 41.26 4.913 C 41.098 5.152 41.115 5.47 41.302 5.69 C 41.428 5.823 41.588 5.918 41.766 5.965 L 42.806 6.287 C 43.192 6.394 43.542 6.603 43.817 6.894 C 44.041 7.159 44.156 7.499 44.141 7.845 C 44.146 8.149 44.058 8.447 43.888 8.7 C 43.715 8.952 43.476 9.153 43.198 9.281 C 42.89 9.422 42.555 9.495 42.216 9.494 Z M 45.107 9.4 L 45.107 3.771 L 46.095 3.771 L 48.214 6.635 L 47.741 6.635 L 49.815 3.771 L 50.787 3.771 L 50.787 9.4 L 49.747 9.4 L 49.747 4.942 L 50.152 5.042 L 48.004 7.89 L 47.88 7.89 L 45.787 5.042 L 46.111 4.942 L 46.111 9.4 Z M 51.425 9.4 L 53.37 3.771 L 54.705 3.771 L 56.649 9.4 L 55.525 9.4 L 55.123 8.19 L 52.948 8.19 L 52.54 9.4 Z M 53.247 7.284 L 54.841 7.284 L 53.898 4.481 L 54.186 4.481 Z M 60.823 9.494 C 60.42 9.5 60.022 9.406 59.666 9.219 C 59.337 9.047 59.062 8.788 58.872 8.471 C 58.676 8.145 58.576 7.77 58.584 7.39 L 58.584 3.771 L 59.624 3.771 L 59.624 7.339 C 59.621 7.557 59.674 7.773 59.779 7.965 C 59.879 8.141 60.024 8.287 60.2 8.387 C 60.59 8.594 61.058 8.594 61.448 8.387 C 61.628 8.285 61.775 8.134 61.873 7.952 C 61.978 7.76 62.031 7.544 62.028 7.326 L 62.028 3.771 L 63.062 3.771 L 63.062 7.39 C 63.068 7.77 62.968 8.144 62.773 8.471 C 62.583 8.788 62.308 9.047 61.979 9.219 C 61.623 9.406 61.225 9.5 60.823 9.494 Z M 64.011 9.4 L 64.011 5.29 L 64.945 5.29 L 64.945 6.1 L 64.87 5.955 C 64.956 5.718 65.124 5.519 65.343 5.394 C 65.578 5.261 65.844 5.194 66.114 5.2 C 66.396 5.194 66.674 5.262 66.921 5.397 C 67.154 5.523 67.346 5.713 67.472 5.945 C 67.608 6.193 67.676 6.472 67.67 6.755 L 67.67 9.4 L 66.675 9.4 L 66.675 6.99 C 66.679 6.828 66.642 6.667 66.568 6.523 C 66.502 6.395 66.401 6.289 66.276 6.216 C 66.005 6.07 65.679 6.07 65.408 6.216 C 65.282 6.288 65.179 6.394 65.113 6.523 C 65.039 6.667 65.002 6.828 65.006 6.99 L 65.006 9.4 Z M 70.518 11.065 C 70.225 11.067 69.934 11.016 69.659 10.913 C 69.407 10.818 69.176 10.676 68.979 10.494 C 68.791 10.315 68.649 10.094 68.567 9.848 L 69.491 9.503 C 69.553 9.696 69.682 9.86 69.854 9.968 C 70.053 10.091 70.284 10.152 70.518 10.145 C 70.702 10.148 70.885 10.11 71.053 10.032 C 71.202 9.962 71.327 9.85 71.412 9.71 C 71.503 9.552 71.548 9.372 71.542 9.19 L 71.542 8.255 L 71.733 8.481 C 71.599 8.714 71.401 8.906 71.163 9.032 C 70.912 9.162 70.632 9.227 70.349 9.223 C 69.988 9.227 69.633 9.136 69.319 8.958 C 69.019 8.785 68.771 8.534 68.603 8.232 C 68.429 7.915 68.341 7.558 68.347 7.197 C 68.34 6.835 68.428 6.478 68.603 6.161 C 68.769 5.864 69.013 5.618 69.309 5.448 C 69.619 5.271 69.97 5.181 70.327 5.187 C 70.611 5.181 70.892 5.248 71.143 5.381 C 71.384 5.513 71.587 5.704 71.733 5.935 L 71.594 6.184 L 71.594 5.29 L 72.537 5.29 L 72.537 9.197 C 72.543 9.538 72.452 9.873 72.274 10.165 C 72.1 10.445 71.854 10.675 71.561 10.829 C 71.239 10.993 70.88 11.074 70.518 11.065 Z M 70.473 8.319 C 70.668 8.324 70.86 8.276 71.03 8.181 C 71.189 8.088 71.319 7.953 71.406 7.79 C 71.589 7.43 71.589 7.005 71.406 6.645 C 71.224 6.304 70.864 6.095 70.476 6.106 C 70.279 6.104 70.084 6.153 69.912 6.248 C 69.749 6.343 69.614 6.48 69.523 6.645 C 69.428 6.82 69.379 7.017 69.381 7.216 C 69.378 7.414 69.427 7.61 69.523 7.784 C 69.613 7.948 69.747 8.084 69.909 8.177 C 70.081 8.273 70.275 8.322 70.473 8.319 Z M 75.466 11.065 C 75.173 11.067 74.882 11.015 74.607 10.913 C 74.356 10.819 74.126 10.677 73.93 10.494 C 73.741 10.316 73.599 10.094 73.515 9.848 L 74.442 9.503 C 74.505 9.695 74.632 9.859 74.802 9.968 C 75.168 10.179 75.614 10.203 76.001 10.032 C 76.15 9.961 76.276 9.849 76.364 9.71 C 76.453 9.551 76.498 9.372 76.493 9.19 L 76.493 8.255 L 76.681 8.481 C 76.548 8.715 76.35 8.906 76.111 9.032 C 75.861 9.162 75.583 9.227 75.301 9.223 C 74.939 9.227 74.582 9.136 74.267 8.958 C 73.968 8.785 73.721 8.534 73.554 8.232 C 73.209 7.585 73.209 6.809 73.554 6.161 C 73.72 5.864 73.964 5.618 74.261 5.448 C 74.57 5.271 74.922 5.181 75.278 5.187 C 75.562 5.181 75.842 5.248 76.092 5.381 C 76.333 5.512 76.536 5.703 76.681 5.935 L 76.545 6.184 L 76.545 5.29 L 77.485 5.29 L 77.485 9.197 C 77.491 9.537 77.401 9.872 77.226 10.165 C 77.05 10.445 76.803 10.675 76.51 10.829 C 76.187 10.993 75.828 11.074 75.466 11.065 Z M 75.421 8.319 C 75.616 8.325 75.808 8.277 75.978 8.181 C 76.138 8.089 76.268 7.953 76.354 7.79 C 76.542 7.432 76.542 7.004 76.354 6.645 C 76.173 6.304 75.812 6.095 75.424 6.106 C 75.228 6.104 75.035 6.153 74.863 6.248 C 74.698 6.342 74.563 6.479 74.471 6.645 C 74.377 6.821 74.329 7.017 74.332 7.216 C 74.328 7.414 74.376 7.61 74.471 7.784 C 74.563 7.948 74.697 8.084 74.86 8.177 C 75.031 8.273 75.225 8.322 75.421 8.319 Z M 79.886 9.494 C 79.594 9.501 79.306 9.427 79.053 9.281 C 78.82 9.14 78.633 8.935 78.515 8.69 C 78.386 8.414 78.321 8.112 78.327 7.806 L 78.327 5.29 L 79.322 5.29 L 79.322 7.723 C 79.32 7.879 79.355 8.034 79.426 8.174 C 79.494 8.3 79.596 8.404 79.721 8.474 C 79.854 8.549 80.005 8.587 80.158 8.584 C 80.31 8.587 80.46 8.549 80.592 8.474 C 80.718 8.403 80.821 8.296 80.887 8.168 C 80.962 8.023 80.999 7.862 80.994 7.7 L 80.994 5.29 L 81.983 5.29 L 81.983 9.4 L 81.04 9.4 L 81.04 8.594 L 81.124 8.735 C 81.038 8.974 80.87 9.175 80.651 9.303 C 80.417 9.432 80.153 9.498 79.886 9.494 Z M 82.913 9.4 L 82.913 3.681 L 83.907 3.681 L 83.907 9.4 Z M 86.079 9.494 C 85.821 9.5 85.566 9.45 85.33 9.348 C 84.913 9.174 84.647 8.763 84.659 8.313 C 84.657 8.1 84.709 7.89 84.812 7.703 C 84.924 7.514 85.087 7.359 85.281 7.255 C 85.533 7.123 85.806 7.035 86.088 6.997 L 87.439 6.777 L 87.439 7.535 L 86.276 7.732 C 86.114 7.752 85.961 7.816 85.835 7.919 C 85.74 8.012 85.688 8.141 85.693 8.274 C 85.689 8.407 85.749 8.533 85.855 8.613 C 85.974 8.697 86.117 8.74 86.263 8.735 C 86.455 8.74 86.645 8.694 86.814 8.603 C 86.969 8.519 87.098 8.393 87.184 8.239 C 87.273 8.081 87.319 7.903 87.316 7.723 L 87.316 6.665 C 87.319 6.493 87.242 6.331 87.109 6.223 C 86.953 6.1 86.757 6.037 86.558 6.045 C 86.357 6.043 86.16 6.102 85.994 6.216 C 85.832 6.327 85.706 6.483 85.631 6.665 L 84.821 6.271 C 84.901 6.056 85.032 5.863 85.204 5.71 C 85.384 5.547 85.594 5.42 85.823 5.335 C 86.07 5.243 86.333 5.197 86.597 5.2 C 86.905 5.194 87.211 5.256 87.491 5.384 C 87.737 5.495 87.946 5.673 88.094 5.897 C 88.242 6.125 88.317 6.393 88.311 6.665 L 88.311 9.4 L 87.371 9.4 L 87.371 8.71 L 87.582 8.71 C 87.483 8.878 87.355 9.028 87.203 9.152 C 87.055 9.272 86.886 9.364 86.704 9.423 C 86.501 9.481 86.289 9.505 86.079 9.494 Z M 89.231 9.4 L 89.231 5.29 L 90.165 5.29 L 90.165 6.1 L 90.087 5.955 C 90.175 5.718 90.344 5.52 90.563 5.394 C 90.798 5.261 91.064 5.194 91.334 5.2 C 91.616 5.195 91.894 5.262 92.141 5.397 C 92.374 5.523 92.565 5.714 92.692 5.945 C 92.828 6.193 92.896 6.472 92.89 6.755 L 92.89 9.4 L 91.895 9.4 L 91.895 6.99 C 91.899 6.828 91.863 6.667 91.788 6.523 C 91.721 6.396 91.62 6.29 91.496 6.216 C 91.226 6.07 90.899 6.07 90.628 6.216 C 90.502 6.288 90.398 6.395 90.33 6.523 C 90.258 6.668 90.222 6.828 90.226 6.99 L 90.226 9.4 Z M 40.346 26.935 L 40.346 15.5 L 44.617 15.5 C 45.332 15.486 46.04 15.631 46.691 15.923 C 47.272 16.185 47.763 16.611 48.104 17.148 C 48.454 17.741 48.628 18.42 48.606 19.106 C 48.628 19.818 48.431 20.519 48.042 21.116 C 47.671 21.668 47.141 22.096 46.523 22.345 L 49.16 26.935 L 46.792 26.935 L 43.973 21.916 L 45.327 22.713 L 42.45 22.713 L 42.45 26.935 Z M 42.45 20.871 L 44.656 20.871 C 44.994 20.878 45.328 20.801 45.628 20.648 C 45.899 20.508 46.124 20.293 46.276 20.029 C 46.588 19.451 46.588 18.756 46.276 18.177 C 46.122 17.917 45.898 17.704 45.628 17.565 C 45.328 17.412 44.994 17.335 44.656 17.342 L 42.45 17.342 Z M 54.964 27.119 C 54.145 27.136 53.336 26.945 52.611 26.565 C 51.233 25.84 50.383 24.403 50.414 22.852 L 50.414 15.5 L 52.511 15.5 L 52.511 22.745 C 52.507 23.191 52.618 23.63 52.835 24.019 C 53.038 24.388 53.34 24.693 53.707 24.9 C 54.499 25.322 55.451 25.322 56.244 24.9 C 56.607 24.691 56.905 24.386 57.106 24.019 C 57.323 23.63 57.434 23.191 57.43 22.745 L 57.43 15.5 L 59.53 15.5 L 59.53 22.852 C 59.561 24.403 58.711 25.84 57.333 26.565 C 56.604 26.947 55.788 27.138 54.964 27.119 Z M 65.709 27.119 C 65.014 27.125 64.325 26.989 63.684 26.719 C 63.077 26.465 62.53 26.086 62.08 25.606 C 61.634 25.131 61.302 24.562 61.108 23.942 L 62.848 23.19 C 63.096 23.806 63.513 24.34 64.05 24.732 C 64.567 25.104 65.189 25.3 65.826 25.294 C 66.159 25.301 66.49 25.241 66.798 25.116 C 67.048 25.014 67.266 24.847 67.43 24.632 C 67.582 24.417 67.661 24.16 67.654 23.897 C 67.665 23.589 67.557 23.289 67.352 23.058 C 67.097 22.806 66.778 22.629 66.429 22.545 L 64.225 21.839 C 63.448 21.63 62.749 21.198 62.216 20.597 C 61.766 20.046 61.526 19.355 61.539 18.645 C 61.527 18.033 61.696 17.43 62.025 16.913 C 62.356 16.402 62.826 15.995 63.379 15.739 C 64.004 15.447 64.689 15.302 65.379 15.316 C 66.029 15.308 66.673 15.431 67.274 15.677 C 67.833 15.906 68.339 16.245 68.762 16.674 C 69.177 17.1 69.496 17.611 69.695 18.171 L 67.968 18.939 C 67.77 18.404 67.416 17.941 66.95 17.61 C 66.488 17.294 65.939 17.131 65.379 17.142 C 65.061 17.136 64.745 17.196 64.452 17.319 C 64.206 17.424 63.993 17.594 63.836 17.81 C 63.685 18.028 63.606 18.289 63.613 18.555 C 63.613 18.864 63.728 19.162 63.937 19.39 C 64.19 19.662 64.516 19.857 64.876 19.952 L 66.989 20.597 C 67.766 20.822 68.468 21.251 69.021 21.839 C 69.484 22.376 69.729 23.066 69.708 23.774 C 69.719 24.391 69.542 24.996 69.199 25.51 C 68.848 26.023 68.363 26.431 67.796 26.69 C 67.142 26.989 66.429 27.136 65.709 27.119 Z M 71.584 26.935 L 71.584 15.5 L 73.681 15.5 L 73.681 20.487 L 78.567 20.487 L 78.567 15.5 L 80.686 15.5 L 80.686 26.935 L 78.574 26.935 L 78.574 22.329 L 73.681 22.329 L 73.681 26.935 Z M 82.887 26.935 L 82.887 15.5 L 86.633 15.5 C 87.734 15.473 88.824 15.724 89.802 16.229 C 90.674 16.69 91.397 17.387 91.889 18.239 C 92.397 19.146 92.653 20.171 92.631 21.21 C 92.653 22.252 92.397 23.282 91.889 24.194 C 91.401 25.053 90.677 25.755 89.802 26.219 C 88.823 26.723 87.734 26.973 86.633 26.948 Z M 84.983 25.094 L 86.678 25.094 C 87.385 25.112 88.085 24.945 88.706 24.61 C 89.27 24.294 89.732 23.825 90.038 23.258 C 90.371 22.627 90.536 21.922 90.518 21.21 C 90.538 20.494 90.373 19.785 90.038 19.152 C 89.73 18.59 89.268 18.127 88.706 17.816 C 88.082 17.487 87.384 17.324 86.678 17.342 L 84.983 17.342 Z M 34.433 0 L 34.909 0 L 34.909 29.852 L 34.433 29.852 Z" fill="rgb(0,0,0)"></path></g></g></svg>